<mxfile host="Electron" agent="Mozilla/5.0 (Macintosh; Intel Mac OS X 10_15_7) AppleWebKit/537.36 (KHTML, like Gecko) draw.io/26.0.9 Chrome/128.0.6613.186 Electron/32.2.5 Safari/537.36" version="26.0.9" pages="6">
  <diagram name="Frontend" id="8NFE6aHF6sQnUN0M53PS">
    <mxGraphModel dx="1026" dy="673" grid="1" gridSize="10" guides="1" tooltips="1" connect="1" arrows="1" fold="1" page="1" pageScale="1" pageWidth="827" pageHeight="1169" math="0" shadow="0">
      <root>
        <mxCell id="0" />
        <mxCell id="1" parent="0" />
        <mxCell id="9aaB1gzZ_eZ7fGfNHpCH-1" value="" style="rounded=1;whiteSpace=wrap;html=1;" parent="1" vertex="1">
          <mxGeometry x="110" y="60" width="610" height="150" as="geometry" />
        </mxCell>
        <mxCell id="9aaB1gzZ_eZ7fGfNHpCH-19" style="edgeStyle=orthogonalEdgeStyle;rounded=0;orthogonalLoop=1;jettySize=auto;html=1;entryX=0.25;entryY=1;entryDx=0;entryDy=0;" parent="1" source="9aaB1gzZ_eZ7fGfNHpCH-2" target="9aaB1gzZ_eZ7fGfNHpCH-8" edge="1">
          <mxGeometry relative="1" as="geometry" />
        </mxCell>
        <mxCell id="9aaB1gzZ_eZ7fGfNHpCH-2" value="Client A (free)" style="whiteSpace=wrap;html=1;aspect=fixed;" parent="1" vertex="1">
          <mxGeometry x="90" y="240" width="60" height="60" as="geometry" />
        </mxCell>
        <mxCell id="9aaB1gzZ_eZ7fGfNHpCH-20" style="edgeStyle=orthogonalEdgeStyle;rounded=0;orthogonalLoop=1;jettySize=auto;html=1;entryX=0.5;entryY=1;entryDx=0;entryDy=0;" parent="1" source="9aaB1gzZ_eZ7fGfNHpCH-3" target="9aaB1gzZ_eZ7fGfNHpCH-8" edge="1">
          <mxGeometry relative="1" as="geometry" />
        </mxCell>
        <mxCell id="9aaB1gzZ_eZ7fGfNHpCH-3" value="Client B (free)" style="whiteSpace=wrap;html=1;aspect=fixed;" parent="1" vertex="1">
          <mxGeometry x="170" y="240" width="60" height="60" as="geometry" />
        </mxCell>
        <mxCell id="9aaB1gzZ_eZ7fGfNHpCH-21" style="edgeStyle=orthogonalEdgeStyle;rounded=0;orthogonalLoop=1;jettySize=auto;html=1;entryX=0.75;entryY=1;entryDx=0;entryDy=0;" parent="1" source="9aaB1gzZ_eZ7fGfNHpCH-4" target="9aaB1gzZ_eZ7fGfNHpCH-8" edge="1">
          <mxGeometry relative="1" as="geometry" />
        </mxCell>
        <mxCell id="9aaB1gzZ_eZ7fGfNHpCH-4" value="Client C (free)" style="whiteSpace=wrap;html=1;aspect=fixed;" parent="1" vertex="1">
          <mxGeometry x="250" y="240" width="60" height="60" as="geometry" />
        </mxCell>
        <mxCell id="FGPxwdN62opBcfM0M5I3-4" style="edgeStyle=orthogonalEdgeStyle;rounded=0;orthogonalLoop=1;jettySize=auto;html=1;exitX=0.5;exitY=0;exitDx=0;exitDy=0;" edge="1" parent="1" source="9aaB1gzZ_eZ7fGfNHpCH-5" target="FGPxwdN62opBcfM0M5I3-1">
          <mxGeometry relative="1" as="geometry" />
        </mxCell>
        <mxCell id="9aaB1gzZ_eZ7fGfNHpCH-5" value="Client D (Premium)" style="whiteSpace=wrap;html=1;aspect=fixed;" parent="1" vertex="1">
          <mxGeometry x="350" y="240" width="60" height="60" as="geometry" />
        </mxCell>
        <mxCell id="FGPxwdN62opBcfM0M5I3-5" style="edgeStyle=orthogonalEdgeStyle;rounded=0;orthogonalLoop=1;jettySize=auto;html=1;exitX=0.5;exitY=0;exitDx=0;exitDy=0;entryX=0.75;entryY=1;entryDx=0;entryDy=0;" edge="1" parent="1" source="9aaB1gzZ_eZ7fGfNHpCH-6" target="FGPxwdN62opBcfM0M5I3-1">
          <mxGeometry relative="1" as="geometry" />
        </mxCell>
        <mxCell id="9aaB1gzZ_eZ7fGfNHpCH-6" value="Client E (Premium)" style="whiteSpace=wrap;html=1;aspect=fixed;" parent="1" vertex="1">
          <mxGeometry x="440" y="240" width="60" height="60" as="geometry" />
        </mxCell>
        <mxCell id="gog_BbwrUwAOpBLQCDgV-2" style="edgeStyle=orthogonalEdgeStyle;rounded=0;orthogonalLoop=1;jettySize=auto;html=1;exitX=0.5;exitY=0;exitDx=0;exitDy=0;entryX=0.5;entryY=1;entryDx=0;entryDy=0;" edge="1" parent="1" source="9aaB1gzZ_eZ7fGfNHpCH-7" target="9aaB1gzZ_eZ7fGfNHpCH-32">
          <mxGeometry relative="1" as="geometry" />
        </mxCell>
        <mxCell id="9aaB1gzZ_eZ7fGfNHpCH-7" value="Client F (Enterprise)" style="whiteSpace=wrap;html=1;" parent="1" vertex="1">
          <mxGeometry x="530" y="240" width="70" height="60" as="geometry" />
        </mxCell>
        <mxCell id="9aaB1gzZ_eZ7fGfNHpCH-8" value="" style="rounded=0;whiteSpace=wrap;html=1;strokeColor=#3399FF;" parent="1" vertex="1">
          <mxGeometry x="130" y="130" width="120" height="60" as="geometry" />
        </mxCell>
        <mxCell id="9aaB1gzZ_eZ7fGfNHpCH-9" value="" style="rounded=0;whiteSpace=wrap;html=1;strokeColor=#3399FF;" parent="1" vertex="1">
          <mxGeometry x="140" y="120" width="120" height="60" as="geometry" />
        </mxCell>
        <mxCell id="9aaB1gzZ_eZ7fGfNHpCH-10" value="Instanz f端r Free Mandanten" style="rounded=0;whiteSpace=wrap;html=1;strokeColor=#3399FF;" parent="1" vertex="1">
          <mxGeometry x="150" y="110" width="120" height="60" as="geometry" />
        </mxCell>
        <mxCell id="9aaB1gzZ_eZ7fGfNHpCH-11" value="&lt;b&gt;Park Frontend&lt;/b&gt;" style="text;html=1;align=center;verticalAlign=middle;whiteSpace=wrap;rounded=0;" parent="1" vertex="1">
          <mxGeometry x="110" y="60" width="110" height="30" as="geometry" />
        </mxCell>
        <mxCell id="9aaB1gzZ_eZ7fGfNHpCH-38" value="" style="rounded=0;whiteSpace=wrap;html=1;strokeColor=#3399FF;" parent="1" vertex="1">
          <mxGeometry x="620" y="110" width="80" height="60" as="geometry" />
        </mxCell>
        <mxCell id="9aaB1gzZ_eZ7fGfNHpCH-33" value="Enterprise Instanz f端r Client G" style="rounded=0;whiteSpace=wrap;html=1;strokeColor=#3399FF;" parent="1" vertex="1">
          <mxGeometry x="610" y="120" width="80" height="60" as="geometry" />
        </mxCell>
        <mxCell id="9aaB1gzZ_eZ7fGfNHpCH-39" value="" style="rounded=0;whiteSpace=wrap;html=1;strokeColor=#3399FF;" parent="1" vertex="1">
          <mxGeometry x="520" y="90" width="80" height="60" as="geometry" />
        </mxCell>
        <mxCell id="9aaB1gzZ_eZ7fGfNHpCH-32" value="Enterprise Instanz f端r Client F" style="rounded=0;whiteSpace=wrap;html=1;strokeColor=#3399FF;" parent="1" vertex="1">
          <mxGeometry x="510" y="100" width="80" height="60" as="geometry" />
        </mxCell>
        <mxCell id="FGPxwdN62opBcfM0M5I3-1" value="" style="rounded=0;whiteSpace=wrap;html=1;strokeColor=#3399FF;" vertex="1" parent="1">
          <mxGeometry x="320" y="130" width="120" height="60" as="geometry" />
        </mxCell>
        <mxCell id="FGPxwdN62opBcfM0M5I3-2" value="" style="rounded=0;whiteSpace=wrap;html=1;strokeColor=#3399FF;" vertex="1" parent="1">
          <mxGeometry x="330" y="120" width="120" height="60" as="geometry" />
        </mxCell>
        <mxCell id="FGPxwdN62opBcfM0M5I3-3" value="Instanz f端r Premium Mandanten" style="rounded=0;whiteSpace=wrap;html=1;strokeColor=#3399FF;" vertex="1" parent="1">
          <mxGeometry x="340" y="110" width="120" height="60" as="geometry" />
        </mxCell>
        <mxCell id="gog_BbwrUwAOpBLQCDgV-3" style="edgeStyle=orthogonalEdgeStyle;rounded=0;orthogonalLoop=1;jettySize=auto;html=1;exitX=0.5;exitY=0;exitDx=0;exitDy=0;entryX=0.5;entryY=1;entryDx=0;entryDy=0;" edge="1" parent="1" source="gog_BbwrUwAOpBLQCDgV-1" target="9aaB1gzZ_eZ7fGfNHpCH-33">
          <mxGeometry relative="1" as="geometry" />
        </mxCell>
        <mxCell id="gog_BbwrUwAOpBLQCDgV-1" value="Client G (Enterprise)" style="whiteSpace=wrap;html=1;" vertex="1" parent="1">
          <mxGeometry x="630" y="240" width="70" height="60" as="geometry" />
        </mxCell>
      </root>
    </mxGraphModel>
  </diagram>
  <diagram id="8CTGkA5mnD3Of2Pvrrv2" name="Management">
    <mxGraphModel dx="1026" dy="673" grid="1" gridSize="10" guides="1" tooltips="1" connect="1" arrows="1" fold="1" page="1" pageScale="1" pageWidth="827" pageHeight="1169" math="0" shadow="0">
      <root>
        <mxCell id="0" />
        <mxCell id="1" parent="0" />
        <mxCell id="w5i4vbFMOMp0x3wW8s4W-1" value="" style="rounded=1;whiteSpace=wrap;html=1;" parent="1" vertex="1">
          <mxGeometry x="110" y="60" width="610" height="150" as="geometry" />
        </mxCell>
        <mxCell id="w5i4vbFMOMp0x3wW8s4W-3" value="Client A (free)" style="whiteSpace=wrap;html=1;aspect=fixed;" parent="1" vertex="1">
          <mxGeometry x="90" y="240" width="60" height="60" as="geometry" />
        </mxCell>
        <mxCell id="w5i4vbFMOMp0x3wW8s4W-5" value="Client B (free)" style="whiteSpace=wrap;html=1;aspect=fixed;" parent="1" vertex="1">
          <mxGeometry x="170" y="240" width="60" height="60" as="geometry" />
        </mxCell>
        <mxCell id="w5i4vbFMOMp0x3wW8s4W-7" value="Client C (free)" style="whiteSpace=wrap;html=1;aspect=fixed;" parent="1" vertex="1">
          <mxGeometry x="250" y="240" width="60" height="60" as="geometry" />
        </mxCell>
        <mxCell id="w5i4vbFMOMp0x3wW8s4W-8" value="Client D (Premium)" style="whiteSpace=wrap;html=1;aspect=fixed;" parent="1" vertex="1">
          <mxGeometry x="350" y="240" width="60" height="60" as="geometry" />
        </mxCell>
        <mxCell id="w5i4vbFMOMp0x3wW8s4W-10" value="Client E (Premium)" style="whiteSpace=wrap;html=1;aspect=fixed;" parent="1" vertex="1">
          <mxGeometry x="440" y="240" width="60" height="60" as="geometry" />
        </mxCell>
        <mxCell id="w5i4vbFMOMp0x3wW8s4W-31" style="edgeStyle=orthogonalEdgeStyle;rounded=0;orthogonalLoop=1;jettySize=auto;html=1;exitX=0.25;exitY=1;exitDx=0;exitDy=0;entryX=0.25;entryY=1;entryDx=0;entryDy=0;" parent="1" source="w5i4vbFMOMp0x3wW8s4W-13" target="w5i4vbFMOMp0x3wW8s4W-15" edge="1">
          <mxGeometry relative="1" as="geometry" />
        </mxCell>
        <mxCell id="w5i4vbFMOMp0x3wW8s4W-13" value="" style="rounded=0;whiteSpace=wrap;html=1;strokeColor=#3399FF;" parent="1" vertex="1">
          <mxGeometry x="130" y="130" width="120" height="60" as="geometry" />
        </mxCell>
        <mxCell id="w5i4vbFMOMp0x3wW8s4W-14" value="" style="rounded=0;whiteSpace=wrap;html=1;strokeColor=#3399FF;" parent="1" vertex="1">
          <mxGeometry x="140" y="120" width="120" height="60" as="geometry" />
        </mxCell>
        <mxCell id="w5i4vbFMOMp0x3wW8s4W-15" value="Instanz f端r Free Mandanten" style="rounded=0;whiteSpace=wrap;html=1;strokeColor=#3399FF;" parent="1" vertex="1">
          <mxGeometry x="150" y="110" width="120" height="60" as="geometry" />
        </mxCell>
        <mxCell id="w5i4vbFMOMp0x3wW8s4W-16" value="&lt;b&gt;Management Services&lt;/b&gt;" style="text;html=1;align=center;verticalAlign=middle;whiteSpace=wrap;rounded=0;" parent="1" vertex="1">
          <mxGeometry x="110" y="60" width="160" height="30" as="geometry" />
        </mxCell>
        <mxCell id="w5i4vbFMOMp0x3wW8s4W-22" value="" style="rounded=0;whiteSpace=wrap;html=1;strokeColor=#3399FF;" parent="1" vertex="1">
          <mxGeometry x="620" y="110" width="80" height="60" as="geometry" />
        </mxCell>
        <mxCell id="w5i4vbFMOMp0x3wW8s4W-23" value="Enterprise Instanz f端r Client G" style="rounded=0;whiteSpace=wrap;html=1;strokeColor=#3399FF;" parent="1" vertex="1">
          <mxGeometry x="610" y="120" width="80" height="60" as="geometry" />
        </mxCell>
        <mxCell id="w5i4vbFMOMp0x3wW8s4W-24" value="" style="rounded=0;whiteSpace=wrap;html=1;strokeColor=#3399FF;" parent="1" vertex="1">
          <mxGeometry x="520" y="90" width="80" height="60" as="geometry" />
        </mxCell>
        <mxCell id="w5i4vbFMOMp0x3wW8s4W-25" value="Enterprise Instanz f端r Client F" style="rounded=0;whiteSpace=wrap;html=1;strokeColor=#3399FF;" parent="1" vertex="1">
          <mxGeometry x="510" y="100" width="80" height="60" as="geometry" />
        </mxCell>
        <mxCell id="w5i4vbFMOMp0x3wW8s4W-26" value="" style="rounded=0;whiteSpace=wrap;html=1;strokeColor=#3399FF;" parent="1" vertex="1">
          <mxGeometry x="330" y="130" width="120" height="60" as="geometry" />
        </mxCell>
        <mxCell id="w5i4vbFMOMp0x3wW8s4W-27" value="" style="rounded=0;whiteSpace=wrap;html=1;strokeColor=#3399FF;" parent="1" vertex="1">
          <mxGeometry x="340" y="120" width="120" height="60" as="geometry" />
        </mxCell>
        <mxCell id="w5i4vbFMOMp0x3wW8s4W-28" value="Instanz f端r Standard Mandanten" style="rounded=0;whiteSpace=wrap;html=1;strokeColor=#3399FF;" parent="1" vertex="1">
          <mxGeometry x="350" y="110" width="120" height="60" as="geometry" />
        </mxCell>
        <mxCell id="w5i4vbFMOMp0x3wW8s4W-30" style="edgeStyle=orthogonalEdgeStyle;rounded=0;orthogonalLoop=1;jettySize=auto;html=1;entryX=0.75;entryY=1;entryDx=0;entryDy=0;" parent="1" source="w5i4vbFMOMp0x3wW8s4W-10" target="w5i4vbFMOMp0x3wW8s4W-28" edge="1">
          <mxGeometry relative="1" as="geometry" />
        </mxCell>
        <mxCell id="w5i4vbFMOMp0x3wW8s4W-29" style="edgeStyle=orthogonalEdgeStyle;rounded=0;orthogonalLoop=1;jettySize=auto;html=1;entryX=0.25;entryY=1;entryDx=0;entryDy=0;" parent="1" source="w5i4vbFMOMp0x3wW8s4W-8" target="w5i4vbFMOMp0x3wW8s4W-28" edge="1">
          <mxGeometry relative="1" as="geometry" />
        </mxCell>
        <mxCell id="w5i4vbFMOMp0x3wW8s4W-6" style="edgeStyle=orthogonalEdgeStyle;rounded=0;orthogonalLoop=1;jettySize=auto;html=1;entryX=0.75;entryY=1;entryDx=0;entryDy=0;" parent="1" source="w5i4vbFMOMp0x3wW8s4W-7" target="w5i4vbFMOMp0x3wW8s4W-15" edge="1">
          <mxGeometry relative="1" as="geometry" />
        </mxCell>
        <mxCell id="w5i4vbFMOMp0x3wW8s4W-4" style="edgeStyle=orthogonalEdgeStyle;rounded=0;orthogonalLoop=1;jettySize=auto;html=1;entryX=0.5;entryY=1;entryDx=0;entryDy=0;" parent="1" source="w5i4vbFMOMp0x3wW8s4W-5" target="w5i4vbFMOMp0x3wW8s4W-15" edge="1">
          <mxGeometry relative="1" as="geometry" />
        </mxCell>
        <mxCell id="w5i4vbFMOMp0x3wW8s4W-2" style="edgeStyle=orthogonalEdgeStyle;rounded=0;orthogonalLoop=1;jettySize=auto;html=1;entryX=0.25;entryY=1;entryDx=0;entryDy=0;" parent="1" source="w5i4vbFMOMp0x3wW8s4W-3" target="w5i4vbFMOMp0x3wW8s4W-15" edge="1">
          <mxGeometry relative="1" as="geometry" />
        </mxCell>
        <mxCell id="X0Y1DFmt8eQ6jsECxcP_-3" style="edgeStyle=orthogonalEdgeStyle;rounded=0;orthogonalLoop=1;jettySize=auto;html=1;exitX=0.5;exitY=0;exitDx=0;exitDy=0;entryX=0.5;entryY=1;entryDx=0;entryDy=0;" edge="1" parent="1" source="X0Y1DFmt8eQ6jsECxcP_-1" target="w5i4vbFMOMp0x3wW8s4W-25">
          <mxGeometry relative="1" as="geometry" />
        </mxCell>
        <mxCell id="X0Y1DFmt8eQ6jsECxcP_-1" value="Client F (Enterprise)" style="whiteSpace=wrap;html=1;" vertex="1" parent="1">
          <mxGeometry x="530" y="240" width="70" height="60" as="geometry" />
        </mxCell>
        <mxCell id="X0Y1DFmt8eQ6jsECxcP_-4" style="edgeStyle=orthogonalEdgeStyle;rounded=0;orthogonalLoop=1;jettySize=auto;html=1;exitX=0.5;exitY=0;exitDx=0;exitDy=0;entryX=0.5;entryY=1;entryDx=0;entryDy=0;" edge="1" parent="1" source="X0Y1DFmt8eQ6jsECxcP_-2" target="w5i4vbFMOMp0x3wW8s4W-23">
          <mxGeometry relative="1" as="geometry" />
        </mxCell>
        <mxCell id="X0Y1DFmt8eQ6jsECxcP_-2" value="Client G (Enterprise)" style="whiteSpace=wrap;html=1;" vertex="1" parent="1">
          <mxGeometry x="630" y="240" width="70" height="60" as="geometry" />
        </mxCell>
      </root>
    </mxGraphModel>
  </diagram>
  <diagram id="vyz0M3PCbjOoSnXeDNxO" name="Authentication">
    <mxGraphModel dx="1026" dy="673" grid="1" gridSize="10" guides="1" tooltips="1" connect="1" arrows="1" fold="1" page="1" pageScale="1" pageWidth="827" pageHeight="1169" math="0" shadow="0">
      <root>
        <mxCell id="0" />
        <mxCell id="1" parent="0" />
        <mxCell id="tn3QYk5V7y7wBAidFSpB-1" value="" style="rounded=1;whiteSpace=wrap;html=1;" parent="1" vertex="1">
          <mxGeometry x="240" y="60" width="330" height="150" as="geometry" />
        </mxCell>
        <mxCell id="hbsxccMUzMlEDMWk3po--3" style="edgeStyle=orthogonalEdgeStyle;rounded=0;orthogonalLoop=1;jettySize=auto;html=1;exitX=0.5;exitY=0;exitDx=0;exitDy=0;entryX=0;entryY=0.25;entryDx=0;entryDy=0;" edge="1" parent="1" source="tn3QYk5V7y7wBAidFSpB-2" target="tn3QYk5V7y7wBAidFSpB-10">
          <mxGeometry relative="1" as="geometry" />
        </mxCell>
        <mxCell id="tn3QYk5V7y7wBAidFSpB-2" value="Client A (free)" style="whiteSpace=wrap;html=1;aspect=fixed;" parent="1" vertex="1">
          <mxGeometry x="90" y="240" width="60" height="60" as="geometry" />
        </mxCell>
        <mxCell id="hbsxccMUzMlEDMWk3po--6" style="edgeStyle=orthogonalEdgeStyle;rounded=0;orthogonalLoop=1;jettySize=auto;html=1;exitX=0.5;exitY=0;exitDx=0;exitDy=0;entryX=0;entryY=0.5;entryDx=0;entryDy=0;" edge="1" parent="1" source="tn3QYk5V7y7wBAidFSpB-3" target="tn3QYk5V7y7wBAidFSpB-10">
          <mxGeometry relative="1" as="geometry" />
        </mxCell>
        <mxCell id="tn3QYk5V7y7wBAidFSpB-3" value="Client A (free)" style="whiteSpace=wrap;html=1;aspect=fixed;" parent="1" vertex="1">
          <mxGeometry x="170" y="240" width="60" height="60" as="geometry" />
        </mxCell>
        <mxCell id="hbsxccMUzMlEDMWk3po--7" style="edgeStyle=orthogonalEdgeStyle;rounded=0;orthogonalLoop=1;jettySize=auto;html=1;exitX=0.5;exitY=0;exitDx=0;exitDy=0;entryX=0;entryY=0.75;entryDx=0;entryDy=0;" edge="1" parent="1" source="tn3QYk5V7y7wBAidFSpB-4" target="tn3QYk5V7y7wBAidFSpB-10">
          <mxGeometry relative="1" as="geometry" />
        </mxCell>
        <mxCell id="tn3QYk5V7y7wBAidFSpB-4" value="Client A (free)" style="whiteSpace=wrap;html=1;aspect=fixed;" parent="1" vertex="1">
          <mxGeometry x="250" y="240" width="60" height="60" as="geometry" />
        </mxCell>
        <mxCell id="hbsxccMUzMlEDMWk3po--9" style="edgeStyle=orthogonalEdgeStyle;rounded=0;orthogonalLoop=1;jettySize=auto;html=1;exitX=0.5;exitY=0;exitDx=0;exitDy=0;entryX=0.25;entryY=1;entryDx=0;entryDy=0;" edge="1" parent="1" source="tn3QYk5V7y7wBAidFSpB-5" target="tn3QYk5V7y7wBAidFSpB-10">
          <mxGeometry relative="1" as="geometry" />
        </mxCell>
        <mxCell id="tn3QYk5V7y7wBAidFSpB-5" value="Client D (Premium)" style="whiteSpace=wrap;html=1;aspect=fixed;" parent="1" vertex="1">
          <mxGeometry x="330" y="240" width="60" height="60" as="geometry" />
        </mxCell>
        <mxCell id="hbsxccMUzMlEDMWk3po--10" style="edgeStyle=orthogonalEdgeStyle;rounded=0;orthogonalLoop=1;jettySize=auto;html=1;exitX=0.5;exitY=0;exitDx=0;exitDy=0;entryX=0.75;entryY=1;entryDx=0;entryDy=0;" edge="1" parent="1" source="tn3QYk5V7y7wBAidFSpB-6" target="tn3QYk5V7y7wBAidFSpB-10">
          <mxGeometry relative="1" as="geometry" />
        </mxCell>
        <mxCell id="tn3QYk5V7y7wBAidFSpB-6" value="Client D (Premium)" style="whiteSpace=wrap;html=1;aspect=fixed;" parent="1" vertex="1">
          <mxGeometry x="414" y="240" width="60" height="60" as="geometry" />
        </mxCell>
        <mxCell id="tn3QYk5V7y7wBAidFSpB-9" style="edgeStyle=orthogonalEdgeStyle;rounded=0;orthogonalLoop=1;jettySize=auto;html=1;exitX=0.25;exitY=1;exitDx=0;exitDy=0;entryX=0.25;entryY=1;entryDx=0;entryDy=0;" parent="1" source="tn3QYk5V7y7wBAidFSpB-10" target="tn3QYk5V7y7wBAidFSpB-12" edge="1">
          <mxGeometry relative="1" as="geometry" />
        </mxCell>
        <mxCell id="tn3QYk5V7y7wBAidFSpB-10" value="" style="rounded=0;whiteSpace=wrap;html=1;strokeColor=#3399FF;" parent="1" vertex="1">
          <mxGeometry x="344" y="120" width="120" height="60" as="geometry" />
        </mxCell>
        <mxCell id="tn3QYk5V7y7wBAidFSpB-11" value="" style="rounded=0;whiteSpace=wrap;html=1;strokeColor=#3399FF;" parent="1" vertex="1">
          <mxGeometry x="354" y="110" width="120" height="60" as="geometry" />
        </mxCell>
        <mxCell id="tn3QYk5V7y7wBAidFSpB-12" value="Instanz f端r alle Mandanten" style="rounded=0;whiteSpace=wrap;html=1;strokeColor=#3399FF;" parent="1" vertex="1">
          <mxGeometry x="364" y="100" width="120" height="60" as="geometry" />
        </mxCell>
        <mxCell id="tn3QYk5V7y7wBAidFSpB-13" value="&lt;b&gt;Authentication-Service&lt;/b&gt;" style="text;html=1;align=center;verticalAlign=middle;whiteSpace=wrap;rounded=0;" parent="1" vertex="1">
          <mxGeometry x="240" y="60" width="160" height="30" as="geometry" />
        </mxCell>
        <mxCell id="hbsxccMUzMlEDMWk3po--11" style="edgeStyle=orthogonalEdgeStyle;rounded=0;orthogonalLoop=1;jettySize=auto;html=1;exitX=0.5;exitY=0;exitDx=0;exitDy=0;entryX=1;entryY=0.75;entryDx=0;entryDy=0;" edge="1" parent="1" source="hbsxccMUzMlEDMWk3po--1" target="tn3QYk5V7y7wBAidFSpB-12">
          <mxGeometry relative="1" as="geometry" />
        </mxCell>
        <mxCell id="hbsxccMUzMlEDMWk3po--1" value="Client F (Enterprise)" style="whiteSpace=wrap;html=1;" vertex="1" parent="1">
          <mxGeometry x="500" y="240" width="70" height="60" as="geometry" />
        </mxCell>
        <mxCell id="hbsxccMUzMlEDMWk3po--12" style="edgeStyle=orthogonalEdgeStyle;rounded=0;orthogonalLoop=1;jettySize=auto;html=1;exitX=0.5;exitY=0;exitDx=0;exitDy=0;entryX=1;entryY=0.5;entryDx=0;entryDy=0;" edge="1" parent="1" source="hbsxccMUzMlEDMWk3po--2" target="tn3QYk5V7y7wBAidFSpB-12">
          <mxGeometry relative="1" as="geometry" />
        </mxCell>
        <mxCell id="hbsxccMUzMlEDMWk3po--2" value="Client F (Enterprise)" style="whiteSpace=wrap;html=1;" vertex="1" parent="1">
          <mxGeometry x="590" y="240" width="70" height="60" as="geometry" />
        </mxCell>
      </root>
    </mxGraphModel>
  </diagram>
  <diagram id="KC3cfMbIcP6oftOGymNT" name="Administration">
    <mxGraphModel dx="1026" dy="673" grid="1" gridSize="10" guides="1" tooltips="1" connect="1" arrows="1" fold="1" page="1" pageScale="1" pageWidth="827" pageHeight="1169" math="0" shadow="0">
      <root>
        <mxCell id="0" />
        <mxCell id="1" parent="0" />
        <mxCell id="UI1cwdhkXjFPAAz3hhwb-1" value="" style="rounded=1;whiteSpace=wrap;html=1;" vertex="1" parent="1">
          <mxGeometry x="240" y="60" width="330" height="150" as="geometry" />
        </mxCell>
        <mxCell id="qXOi8wYkGvmE2yy7SNy--14" value="&lt;b&gt;Infrastructure Administration Service&lt;/b&gt;" style="text;html=1;align=center;verticalAlign=middle;whiteSpace=wrap;rounded=0;" parent="1" vertex="1">
          <mxGeometry x="240" y="60" width="230" height="30" as="geometry" />
        </mxCell>
        <mxCell id="UI1cwdhkXjFPAAz3hhwb-2" style="edgeStyle=orthogonalEdgeStyle;rounded=0;orthogonalLoop=1;jettySize=auto;html=1;exitX=0.5;exitY=0;exitDx=0;exitDy=0;entryX=0;entryY=0.25;entryDx=0;entryDy=0;" edge="1" parent="1" source="UI1cwdhkXjFPAAz3hhwb-3" target="UI1cwdhkXjFPAAz3hhwb-13">
          <mxGeometry relative="1" as="geometry" />
        </mxCell>
        <mxCell id="UI1cwdhkXjFPAAz3hhwb-3" value="Client A (free)" style="whiteSpace=wrap;html=1;aspect=fixed;" vertex="1" parent="1">
          <mxGeometry x="90" y="240" width="60" height="60" as="geometry" />
        </mxCell>
        <mxCell id="UI1cwdhkXjFPAAz3hhwb-4" style="edgeStyle=orthogonalEdgeStyle;rounded=0;orthogonalLoop=1;jettySize=auto;html=1;exitX=0.5;exitY=0;exitDx=0;exitDy=0;entryX=0;entryY=0.5;entryDx=0;entryDy=0;" edge="1" parent="1" source="UI1cwdhkXjFPAAz3hhwb-5" target="UI1cwdhkXjFPAAz3hhwb-13">
          <mxGeometry relative="1" as="geometry" />
        </mxCell>
        <mxCell id="UI1cwdhkXjFPAAz3hhwb-5" value="Client A (free)" style="whiteSpace=wrap;html=1;aspect=fixed;" vertex="1" parent="1">
          <mxGeometry x="170" y="240" width="60" height="60" as="geometry" />
        </mxCell>
        <mxCell id="UI1cwdhkXjFPAAz3hhwb-6" style="edgeStyle=orthogonalEdgeStyle;rounded=0;orthogonalLoop=1;jettySize=auto;html=1;exitX=0.5;exitY=0;exitDx=0;exitDy=0;entryX=0;entryY=0.75;entryDx=0;entryDy=0;" edge="1" parent="1" source="UI1cwdhkXjFPAAz3hhwb-7" target="UI1cwdhkXjFPAAz3hhwb-13">
          <mxGeometry relative="1" as="geometry" />
        </mxCell>
        <mxCell id="UI1cwdhkXjFPAAz3hhwb-7" value="Client A (free)" style="whiteSpace=wrap;html=1;aspect=fixed;" vertex="1" parent="1">
          <mxGeometry x="250" y="240" width="60" height="60" as="geometry" />
        </mxCell>
        <mxCell id="UI1cwdhkXjFPAAz3hhwb-8" style="edgeStyle=orthogonalEdgeStyle;rounded=0;orthogonalLoop=1;jettySize=auto;html=1;exitX=0.5;exitY=0;exitDx=0;exitDy=0;entryX=0.25;entryY=1;entryDx=0;entryDy=0;" edge="1" parent="1" source="UI1cwdhkXjFPAAz3hhwb-9" target="UI1cwdhkXjFPAAz3hhwb-13">
          <mxGeometry relative="1" as="geometry" />
        </mxCell>
        <mxCell id="UI1cwdhkXjFPAAz3hhwb-9" value="Client D (Premium)" style="whiteSpace=wrap;html=1;aspect=fixed;" vertex="1" parent="1">
          <mxGeometry x="330" y="240" width="60" height="60" as="geometry" />
        </mxCell>
        <mxCell id="UI1cwdhkXjFPAAz3hhwb-10" style="edgeStyle=orthogonalEdgeStyle;rounded=0;orthogonalLoop=1;jettySize=auto;html=1;exitX=0.5;exitY=0;exitDx=0;exitDy=0;entryX=0.75;entryY=1;entryDx=0;entryDy=0;" edge="1" parent="1" source="UI1cwdhkXjFPAAz3hhwb-11" target="UI1cwdhkXjFPAAz3hhwb-13">
          <mxGeometry relative="1" as="geometry" />
        </mxCell>
        <mxCell id="UI1cwdhkXjFPAAz3hhwb-11" value="Client D (Premium)" style="whiteSpace=wrap;html=1;aspect=fixed;" vertex="1" parent="1">
          <mxGeometry x="414" y="240" width="60" height="60" as="geometry" />
        </mxCell>
        <mxCell id="UI1cwdhkXjFPAAz3hhwb-12" style="edgeStyle=orthogonalEdgeStyle;rounded=0;orthogonalLoop=1;jettySize=auto;html=1;exitX=0.25;exitY=1;exitDx=0;exitDy=0;entryX=0.25;entryY=1;entryDx=0;entryDy=0;" edge="1" parent="1" source="UI1cwdhkXjFPAAz3hhwb-13" target="UI1cwdhkXjFPAAz3hhwb-15">
          <mxGeometry relative="1" as="geometry" />
        </mxCell>
        <mxCell id="UI1cwdhkXjFPAAz3hhwb-13" value="" style="rounded=0;whiteSpace=wrap;html=1;strokeColor=#3399FF;" vertex="1" parent="1">
          <mxGeometry x="344" y="120" width="120" height="60" as="geometry" />
        </mxCell>
        <mxCell id="UI1cwdhkXjFPAAz3hhwb-14" value="" style="rounded=0;whiteSpace=wrap;html=1;strokeColor=#3399FF;" vertex="1" parent="1">
          <mxGeometry x="354" y="110" width="120" height="60" as="geometry" />
        </mxCell>
        <mxCell id="UI1cwdhkXjFPAAz3hhwb-15" value="Instanz f端r alle Mandanten" style="rounded=0;whiteSpace=wrap;html=1;strokeColor=#3399FF;" vertex="1" parent="1">
          <mxGeometry x="364" y="100" width="120" height="60" as="geometry" />
        </mxCell>
        <mxCell id="UI1cwdhkXjFPAAz3hhwb-17" style="edgeStyle=orthogonalEdgeStyle;rounded=0;orthogonalLoop=1;jettySize=auto;html=1;exitX=0.5;exitY=0;exitDx=0;exitDy=0;entryX=1;entryY=0.75;entryDx=0;entryDy=0;" edge="1" parent="1" source="UI1cwdhkXjFPAAz3hhwb-18" target="UI1cwdhkXjFPAAz3hhwb-15">
          <mxGeometry relative="1" as="geometry" />
        </mxCell>
        <mxCell id="UI1cwdhkXjFPAAz3hhwb-18" value="Client F (Enterprise)" style="whiteSpace=wrap;html=1;" vertex="1" parent="1">
          <mxGeometry x="500" y="240" width="70" height="60" as="geometry" />
        </mxCell>
        <mxCell id="UI1cwdhkXjFPAAz3hhwb-19" style="edgeStyle=orthogonalEdgeStyle;rounded=0;orthogonalLoop=1;jettySize=auto;html=1;exitX=0.5;exitY=0;exitDx=0;exitDy=0;entryX=1;entryY=0.5;entryDx=0;entryDy=0;" edge="1" parent="1" source="UI1cwdhkXjFPAAz3hhwb-20" target="UI1cwdhkXjFPAAz3hhwb-15">
          <mxGeometry relative="1" as="geometry" />
        </mxCell>
        <mxCell id="UI1cwdhkXjFPAAz3hhwb-20" value="Client F (Enterprise)" style="whiteSpace=wrap;html=1;" vertex="1" parent="1">
          <mxGeometry x="590" y="240" width="70" height="60" as="geometry" />
        </mxCell>
      </root>
    </mxGraphModel>
  </diagram>
  <diagram id="T0tuT6BsZfJdCC840h6u" name="Components">
    <mxGraphModel dx="1368" dy="2066" grid="1" gridSize="10" guides="1" tooltips="1" connect="1" arrows="1" fold="1" page="1" pageScale="1" pageWidth="827" pageHeight="1169" math="0" shadow="0">
      <root>
        <mxCell id="0" />
        <mxCell id="1" parent="0" />
        <mxCell id="SejZ0rhzsKtQ6_F7bs0g-2" value="" style="rounded=0;whiteSpace=wrap;html=1;" parent="1" vertex="1">
          <mxGeometry x="160" y="-221" width="620" height="1061" as="geometry" />
        </mxCell>
        <mxCell id="gVrnL109HP0b8izdyNW6-12" style="edgeStyle=orthogonalEdgeStyle;rounded=0;orthogonalLoop=1;jettySize=auto;html=1;exitX=1;exitY=0;exitDx=0;exitDy=0;entryX=0;entryY=0.5;entryDx=0;entryDy=0;" parent="1" source="NT6AJOet0JUW9j6YSTwX-1" target="TocEvrK7y1K00fYPoOnX-4" edge="1">
          <mxGeometry relative="1" as="geometry" />
        </mxCell>
        <mxCell id="KQr703f1yE4qFfnHCt3n-1" style="edgeStyle=orthogonalEdgeStyle;rounded=0;orthogonalLoop=1;jettySize=auto;html=1;exitX=1;exitY=0.75;exitDx=0;exitDy=0;entryX=0;entryY=0.75;entryDx=0;entryDy=0;" parent="1" source="NT6AJOet0JUW9j6YSTwX-1" target="TocEvrK7y1K00fYPoOnX-2" edge="1">
          <mxGeometry relative="1" as="geometry" />
        </mxCell>
        <mxCell id="Kg3m1BvIZtOhgXG6pX4H-5" style="edgeStyle=orthogonalEdgeStyle;rounded=0;orthogonalLoop=1;jettySize=auto;html=1;exitX=0.5;exitY=1;exitDx=0;exitDy=0;entryX=0;entryY=0.5;entryDx=0;entryDy=0;fillColor=#d5e8d4;strokeColor=#82b366;" edge="1" parent="1" source="NT6AJOet0JUW9j6YSTwX-1" target="TocEvrK7y1K00fYPoOnX-3">
          <mxGeometry relative="1" as="geometry" />
        </mxCell>
        <mxCell id="NT6AJOet0JUW9j6YSTwX-1" value="&lt;b&gt;&lt;u&gt;Park Frontend&lt;/u&gt;&lt;/b&gt;&lt;div&gt;- free&lt;/div&gt;&lt;div&gt;- Multi Tenant&lt;/div&gt;" style="rounded=0;whiteSpace=wrap;html=1;strokeColor=#3399FF;" parent="1" vertex="1">
          <mxGeometry x="180" y="-110" width="120" height="60" as="geometry" />
        </mxCell>
        <mxCell id="Kg3m1BvIZtOhgXG6pX4H-3" style="edgeStyle=orthogonalEdgeStyle;rounded=0;orthogonalLoop=1;jettySize=auto;html=1;exitX=1;exitY=0.25;exitDx=0;exitDy=0;entryX=0;entryY=0.5;entryDx=0;entryDy=0;" edge="1" parent="1" source="NT6AJOet0JUW9j6YSTwX-3" target="KQr703f1yE4qFfnHCt3n-10">
          <mxGeometry relative="1" as="geometry" />
        </mxCell>
        <mxCell id="Kg3m1BvIZtOhgXG6pX4H-4" style="edgeStyle=orthogonalEdgeStyle;rounded=0;orthogonalLoop=1;jettySize=auto;html=1;exitX=1;exitY=0.75;exitDx=0;exitDy=0;entryX=0;entryY=0.5;entryDx=0;entryDy=0;" edge="1" parent="1" source="NT6AJOet0JUW9j6YSTwX-3" target="KQr703f1yE4qFfnHCt3n-5">
          <mxGeometry relative="1" as="geometry" />
        </mxCell>
        <mxCell id="Kg3m1BvIZtOhgXG6pX4H-10" style="edgeStyle=orthogonalEdgeStyle;rounded=0;orthogonalLoop=1;jettySize=auto;html=1;exitX=0.75;exitY=1;exitDx=0;exitDy=0;entryX=0;entryY=0.25;entryDx=0;entryDy=0;fillColor=#d5e8d4;strokeColor=#82b366;" edge="1" parent="1" source="NT6AJOet0JUW9j6YSTwX-3" target="TocEvrK7y1K00fYPoOnX-3">
          <mxGeometry relative="1" as="geometry" />
        </mxCell>
        <mxCell id="NT6AJOet0JUW9j6YSTwX-3" value="&lt;div&gt;&lt;b&gt;&lt;u&gt;Park Frontend&lt;/u&gt;&lt;/b&gt;&lt;/div&gt;&lt;div&gt;- Premium&lt;/div&gt;&lt;div&gt;- Single Tenant&lt;/div&gt;&lt;div&gt;- Client D&amp;nbsp;&amp;nbsp;&lt;/div&gt;" style="rounded=0;whiteSpace=wrap;html=1;strokeColor=#3399FF;" parent="1" vertex="1">
          <mxGeometry x="190" y="170" width="120" height="60" as="geometry" />
        </mxCell>
        <mxCell id="KQr703f1yE4qFfnHCt3n-35" style="edgeStyle=orthogonalEdgeStyle;rounded=0;orthogonalLoop=1;jettySize=auto;html=1;exitX=1;exitY=0.25;exitDx=0;exitDy=0;entryX=0;entryY=0.5;entryDx=0;entryDy=0;" parent="1" source="NT6AJOet0JUW9j6YSTwX-4" target="KQr703f1yE4qFfnHCt3n-29" edge="1">
          <mxGeometry relative="1" as="geometry" />
        </mxCell>
        <mxCell id="KQr703f1yE4qFfnHCt3n-37" style="edgeStyle=orthogonalEdgeStyle;rounded=0;orthogonalLoop=1;jettySize=auto;html=1;exitX=1;exitY=0.75;exitDx=0;exitDy=0;entryX=0;entryY=0.5;entryDx=0;entryDy=0;" parent="1" source="NT6AJOet0JUW9j6YSTwX-4" target="KQr703f1yE4qFfnHCt3n-24" edge="1">
          <mxGeometry relative="1" as="geometry" />
        </mxCell>
        <mxCell id="Wbc4fLs5mlWrKc6PaSyA-8" style="edgeStyle=orthogonalEdgeStyle;rounded=0;orthogonalLoop=1;jettySize=auto;html=1;exitX=1;exitY=0.5;exitDx=0;exitDy=0;entryX=0;entryY=0.25;entryDx=0;entryDy=0;" parent="1" source="Wbc4fLs5mlWrKc6PaSyA-1" target="NT6AJOet0JUW9j6YSTwX-1" edge="1">
          <mxGeometry relative="1" as="geometry" />
        </mxCell>
        <mxCell id="Wbc4fLs5mlWrKc6PaSyA-1" value="Client A (free)" style="whiteSpace=wrap;html=1;aspect=fixed;" parent="1" vertex="1">
          <mxGeometry x="50" y="130" width="60" height="60" as="geometry" />
        </mxCell>
        <mxCell id="Wbc4fLs5mlWrKc6PaSyA-9" style="edgeStyle=orthogonalEdgeStyle;rounded=0;orthogonalLoop=1;jettySize=auto;html=1;exitX=1;exitY=0.5;exitDx=0;exitDy=0;entryX=0;entryY=0.75;entryDx=0;entryDy=0;" parent="1" source="Wbc4fLs5mlWrKc6PaSyA-2" target="NT6AJOet0JUW9j6YSTwX-1" edge="1">
          <mxGeometry relative="1" as="geometry" />
        </mxCell>
        <mxCell id="Wbc4fLs5mlWrKc6PaSyA-2" value="Client B (free)" style="whiteSpace=wrap;html=1;aspect=fixed;" parent="1" vertex="1">
          <mxGeometry x="50" y="200" width="60" height="60" as="geometry" />
        </mxCell>
        <mxCell id="Kg3m1BvIZtOhgXG6pX4H-2" style="edgeStyle=orthogonalEdgeStyle;rounded=0;orthogonalLoop=1;jettySize=auto;html=1;exitX=1;exitY=0.5;exitDx=0;exitDy=0;entryX=0;entryY=0.75;entryDx=0;entryDy=0;" edge="1" parent="1" source="Wbc4fLs5mlWrKc6PaSyA-3" target="NT6AJOet0JUW9j6YSTwX-3">
          <mxGeometry relative="1" as="geometry" />
        </mxCell>
        <mxCell id="Wbc4fLs5mlWrKc6PaSyA-3" value="Client C (Premium" style="whiteSpace=wrap;html=1;aspect=fixed;" parent="1" vertex="1">
          <mxGeometry x="50" y="270" width="60" height="60" as="geometry" />
        </mxCell>
        <mxCell id="Wbc4fLs5mlWrKc6PaSyA-11" style="edgeStyle=orthogonalEdgeStyle;rounded=0;orthogonalLoop=1;jettySize=auto;html=1;exitX=1;exitY=0.5;exitDx=0;exitDy=0;entryX=0;entryY=0.5;entryDx=0;entryDy=0;" parent="1" source="Wbc4fLs5mlWrKc6PaSyA-4" target="NT6AJOet0JUW9j6YSTwX-3" edge="1">
          <mxGeometry relative="1" as="geometry" />
        </mxCell>
        <mxCell id="Wbc4fLs5mlWrKc6PaSyA-4" value="Client D (Premium)" style="whiteSpace=wrap;html=1;aspect=fixed;" parent="1" vertex="1">
          <mxGeometry x="50" y="340" width="60" height="60" as="geometry" />
        </mxCell>
        <mxCell id="Wbc4fLs5mlWrKc6PaSyA-12" style="edgeStyle=orthogonalEdgeStyle;rounded=0;orthogonalLoop=1;jettySize=auto;html=1;exitX=1;exitY=0.5;exitDx=0;exitDy=0;entryX=0;entryY=0.5;entryDx=0;entryDy=0;" parent="1" source="Wbc4fLs5mlWrKc6PaSyA-5" target="NT6AJOet0JUW9j6YSTwX-4" edge="1">
          <mxGeometry relative="1" as="geometry" />
        </mxCell>
        <mxCell id="Wbc4fLs5mlWrKc6PaSyA-5" value="Client E (Enterprise)" style="whiteSpace=wrap;html=1;" parent="1" vertex="1">
          <mxGeometry x="40" y="410" width="70" height="60" as="geometry" />
        </mxCell>
        <mxCell id="gVrnL109HP0b8izdyNW6-21" style="edgeStyle=orthogonalEdgeStyle;rounded=0;orthogonalLoop=1;jettySize=auto;html=1;exitX=1;exitY=0.25;exitDx=0;exitDy=0;entryX=0;entryY=0.25;entryDx=0;entryDy=0;" parent="1" source="TocEvrK7y1K00fYPoOnX-2" target="gVrnL109HP0b8izdyNW6-6" edge="1">
          <mxGeometry relative="1" as="geometry" />
        </mxCell>
        <mxCell id="gVrnL109HP0b8izdyNW6-22" style="edgeStyle=orthogonalEdgeStyle;rounded=0;orthogonalLoop=1;jettySize=auto;html=1;exitX=1;exitY=0.75;exitDx=0;exitDy=0;entryX=0;entryY=0.5;entryDx=0;entryDy=0;" parent="1" source="TocEvrK7y1K00fYPoOnX-2" target="gVrnL109HP0b8izdyNW6-7" edge="1">
          <mxGeometry relative="1" as="geometry" />
        </mxCell>
        <mxCell id="Kg3m1BvIZtOhgXG6pX4H-7" style="edgeStyle=orthogonalEdgeStyle;rounded=0;orthogonalLoop=1;jettySize=auto;html=1;exitX=0.5;exitY=1;exitDx=0;exitDy=0;entryX=0.5;entryY=0;entryDx=0;entryDy=0;fillColor=#d5e8d4;strokeColor=#82b366;" edge="1" parent="1" source="TocEvrK7y1K00fYPoOnX-2" target="TocEvrK7y1K00fYPoOnX-3">
          <mxGeometry relative="1" as="geometry" />
        </mxCell>
        <mxCell id="gVrnL109HP0b8izdyNW6-20" style="edgeStyle=orthogonalEdgeStyle;rounded=0;orthogonalLoop=1;jettySize=auto;html=1;exitX=1;exitY=0.5;exitDx=0;exitDy=0;entryX=0;entryY=0.5;entryDx=0;entryDy=0;" parent="1" source="TocEvrK7y1K00fYPoOnX-3" target="gVrnL109HP0b8izdyNW6-4" edge="1">
          <mxGeometry relative="1" as="geometry" />
        </mxCell>
        <mxCell id="gVrnL109HP0b8izdyNW6-16" style="edgeStyle=orthogonalEdgeStyle;rounded=0;orthogonalLoop=1;jettySize=auto;html=1;exitX=1;exitY=0.25;exitDx=0;exitDy=0;entryX=0;entryY=0.5;entryDx=0;entryDy=0;" parent="1" source="TocEvrK7y1K00fYPoOnX-4" target="gVrnL109HP0b8izdyNW6-2" edge="1">
          <mxGeometry relative="1" as="geometry" />
        </mxCell>
        <mxCell id="gVrnL109HP0b8izdyNW6-18" style="edgeStyle=orthogonalEdgeStyle;rounded=0;orthogonalLoop=1;jettySize=auto;html=1;entryX=0;entryY=0.5;entryDx=0;entryDy=0;" parent="1" source="TocEvrK7y1K00fYPoOnX-4" target="gVrnL109HP0b8izdyNW6-3" edge="1">
          <mxGeometry relative="1" as="geometry" />
        </mxCell>
        <mxCell id="Kg3m1BvIZtOhgXG6pX4H-6" style="edgeStyle=orthogonalEdgeStyle;rounded=0;orthogonalLoop=1;jettySize=auto;html=1;exitX=0.25;exitY=1;exitDx=0;exitDy=0;entryX=0.25;entryY=0;entryDx=0;entryDy=0;fontColor=#7EA6E0;fillColor=#d5e8d4;strokeColor=#82b366;" edge="1" parent="1" source="TocEvrK7y1K00fYPoOnX-4" target="TocEvrK7y1K00fYPoOnX-3">
          <mxGeometry relative="1" as="geometry" />
        </mxCell>
        <mxCell id="TocEvrK7y1K00fYPoOnX-4" value="&lt;div&gt;&lt;b&gt;&lt;u&gt;Parking Management Service&lt;br&gt;&lt;/u&gt;&lt;/b&gt;- free&lt;/div&gt;&lt;div&gt;- Multi Tenant&lt;/div&gt;" style="rounded=0;whiteSpace=wrap;html=1;strokeColor=#3399FF;" parent="1" vertex="1">
          <mxGeometry x="400" y="-180" width="180" height="60" as="geometry" />
        </mxCell>
        <mxCell id="gVrnL109HP0b8izdyNW6-2" value="&lt;div&gt;&lt;b&gt;&lt;u&gt;Storage&lt;br&gt;&lt;/u&gt;&lt;/b&gt;- free&lt;/div&gt;&lt;div&gt;- Multi Tenant&lt;/div&gt;" style="rounded=0;whiteSpace=wrap;html=1;strokeColor=#3399FF;" parent="1" vertex="1">
          <mxGeometry x="640" y="-210" width="120" height="60" as="geometry" />
        </mxCell>
        <mxCell id="gVrnL109HP0b8izdyNW6-3" value="&lt;div&gt;&lt;b&gt;&lt;u&gt;Database&lt;br&gt;&lt;/u&gt;&lt;/b&gt;- free&lt;/div&gt;&lt;div&gt;- Multi Tenant&lt;/div&gt;" style="rounded=0;whiteSpace=wrap;html=1;strokeColor=#3399FF;" parent="1" vertex="1">
          <mxGeometry x="640" y="-140" width="120" height="60" as="geometry" />
        </mxCell>
        <mxCell id="gVrnL109HP0b8izdyNW6-4" value="&lt;div&gt;&lt;b&gt;&lt;u&gt;Identity Plattform&lt;br&gt;&lt;/u&gt;&lt;/b&gt;- all tenant types&lt;/div&gt;&lt;div&gt;- Multi Tenant&lt;/div&gt;" style="rounded=0;whiteSpace=wrap;html=1;strokeColor=#3399FF;" parent="1" vertex="1">
          <mxGeometry x="640" y="390" width="120" height="60" as="geometry" />
        </mxCell>
        <mxCell id="gVrnL109HP0b8izdyNW6-6" value="&lt;div&gt;&lt;b&gt;&lt;u&gt;Storage&lt;br&gt;&lt;/u&gt;&lt;/b&gt;- free&lt;/div&gt;&lt;div&gt;- Multi Tenant&lt;/div&gt;" style="rounded=0;whiteSpace=wrap;html=1;strokeColor=#3399FF;" parent="1" vertex="1">
          <mxGeometry x="640" y="-70" width="120" height="60" as="geometry" />
        </mxCell>
        <mxCell id="gVrnL109HP0b8izdyNW6-7" value="&lt;div&gt;&lt;b&gt;&lt;u&gt;Database&lt;br&gt;&lt;/u&gt;&lt;/b&gt;- free&lt;/div&gt;&lt;div&gt;- Multi Tenant&lt;/div&gt;" style="rounded=0;whiteSpace=wrap;html=1;strokeColor=#3399FF;" parent="1" vertex="1">
          <mxGeometry x="640" width="120" height="60" as="geometry" />
        </mxCell>
        <mxCell id="KQr703f1yE4qFfnHCt3n-3" style="edgeStyle=orthogonalEdgeStyle;rounded=0;orthogonalLoop=1;jettySize=auto;html=1;exitX=1;exitY=0.25;exitDx=0;exitDy=0;entryX=0;entryY=0.25;entryDx=0;entryDy=0;" parent="1" source="KQr703f1yE4qFfnHCt3n-5" target="KQr703f1yE4qFfnHCt3n-14" edge="1">
          <mxGeometry relative="1" as="geometry" />
        </mxCell>
        <mxCell id="KQr703f1yE4qFfnHCt3n-4" style="edgeStyle=orthogonalEdgeStyle;rounded=0;orthogonalLoop=1;jettySize=auto;html=1;exitX=1;exitY=0.75;exitDx=0;exitDy=0;entryX=0;entryY=0.5;entryDx=0;entryDy=0;" parent="1" source="KQr703f1yE4qFfnHCt3n-5" target="KQr703f1yE4qFfnHCt3n-15" edge="1">
          <mxGeometry relative="1" as="geometry" />
        </mxCell>
        <mxCell id="Kg3m1BvIZtOhgXG6pX4H-9" style="edgeStyle=orthogonalEdgeStyle;rounded=0;orthogonalLoop=1;jettySize=auto;html=1;exitX=1;exitY=1;exitDx=0;exitDy=0;entryX=1;entryY=0;entryDx=0;entryDy=0;fillColor=#d5e8d4;strokeColor=#82b366;" edge="1" parent="1" source="KQr703f1yE4qFfnHCt3n-5" target="TocEvrK7y1K00fYPoOnX-3">
          <mxGeometry relative="1" as="geometry" />
        </mxCell>
        <mxCell id="KQr703f1yE4qFfnHCt3n-8" style="edgeStyle=orthogonalEdgeStyle;rounded=0;orthogonalLoop=1;jettySize=auto;html=1;exitX=1;exitY=0.25;exitDx=0;exitDy=0;entryX=0;entryY=0.5;entryDx=0;entryDy=0;" parent="1" source="KQr703f1yE4qFfnHCt3n-10" target="KQr703f1yE4qFfnHCt3n-11" edge="1">
          <mxGeometry relative="1" as="geometry" />
        </mxCell>
        <mxCell id="Kg3m1BvIZtOhgXG6pX4H-8" style="edgeStyle=orthogonalEdgeStyle;rounded=0;orthogonalLoop=1;jettySize=auto;html=1;exitX=0.75;exitY=1;exitDx=0;exitDy=0;entryX=0.75;entryY=0;entryDx=0;entryDy=0;fillColor=#d5e8d4;strokeColor=#82b366;" edge="1" parent="1" source="KQr703f1yE4qFfnHCt3n-10" target="TocEvrK7y1K00fYPoOnX-3">
          <mxGeometry relative="1" as="geometry" />
        </mxCell>
        <mxCell id="KQr703f1yE4qFfnHCt3n-9" style="edgeStyle=orthogonalEdgeStyle;rounded=0;orthogonalLoop=1;jettySize=auto;html=1;entryX=0;entryY=0.5;entryDx=0;entryDy=0;" parent="1" source="KQr703f1yE4qFfnHCt3n-10" target="KQr703f1yE4qFfnHCt3n-12" edge="1">
          <mxGeometry relative="1" as="geometry" />
        </mxCell>
        <mxCell id="KQr703f1yE4qFfnHCt3n-11" value="&lt;div&gt;&lt;b&gt;&lt;u&gt;Storage&lt;br&gt;&lt;/u&gt;&lt;/b&gt;- Premium&lt;/div&gt;&lt;div&gt;- Multi Tenant&lt;/div&gt;" style="rounded=0;whiteSpace=wrap;html=1;strokeColor=#3399FF;" parent="1" vertex="1">
          <mxGeometry x="640" y="80" width="120" height="60" as="geometry" />
        </mxCell>
        <mxCell id="KQr703f1yE4qFfnHCt3n-12" value="&lt;div&gt;&lt;b&gt;&lt;u&gt;Database&lt;br&gt;&lt;/u&gt;&lt;/b&gt;-&amp;nbsp;&lt;span style=&quot;background-color: initial;&quot;&gt;Premium&lt;/span&gt;&lt;/div&gt;&lt;div&gt;- Multi Tenant&lt;/div&gt;" style="rounded=0;whiteSpace=wrap;html=1;strokeColor=#3399FF;" parent="1" vertex="1">
          <mxGeometry x="640" y="150" width="120" height="60" as="geometry" />
        </mxCell>
        <mxCell id="KQr703f1yE4qFfnHCt3n-14" value="&lt;div&gt;&lt;b&gt;&lt;u&gt;Storage&lt;br&gt;&lt;/u&gt;&lt;/b&gt;-&amp;nbsp;&lt;span style=&quot;background-color: initial;&quot;&gt;Premium&lt;/span&gt;&lt;/div&gt;&lt;div&gt;- Multi Tenant&lt;/div&gt;" style="rounded=0;whiteSpace=wrap;html=1;strokeColor=#3399FF;" parent="1" vertex="1">
          <mxGeometry x="640" y="220" width="120" height="60" as="geometry" />
        </mxCell>
        <mxCell id="KQr703f1yE4qFfnHCt3n-15" value="&lt;div&gt;&lt;b&gt;&lt;u&gt;Database&lt;br&gt;&lt;/u&gt;&lt;/b&gt;-&amp;nbsp;&lt;span style=&quot;background-color: initial;&quot;&gt;Premium&lt;/span&gt;&lt;/div&gt;&lt;div&gt;- Multi Tenant&lt;/div&gt;" style="rounded=0;whiteSpace=wrap;html=1;strokeColor=#3399FF;" parent="1" vertex="1">
          <mxGeometry x="640" y="290" width="120" height="60" as="geometry" />
        </mxCell>
        <mxCell id="KQr703f1yE4qFfnHCt3n-22" style="edgeStyle=orthogonalEdgeStyle;rounded=0;orthogonalLoop=1;jettySize=auto;html=1;exitX=1;exitY=0.25;exitDx=0;exitDy=0;entryX=0;entryY=0.25;entryDx=0;entryDy=0;" parent="1" source="KQr703f1yE4qFfnHCt3n-24" target="KQr703f1yE4qFfnHCt3n-33" edge="1">
          <mxGeometry relative="1" as="geometry" />
        </mxCell>
        <mxCell id="KQr703f1yE4qFfnHCt3n-23" style="edgeStyle=orthogonalEdgeStyle;rounded=0;orthogonalLoop=1;jettySize=auto;html=1;exitX=1;exitY=0.75;exitDx=0;exitDy=0;entryX=0;entryY=0.5;entryDx=0;entryDy=0;" parent="1" source="KQr703f1yE4qFfnHCt3n-24" target="KQr703f1yE4qFfnHCt3n-34" edge="1">
          <mxGeometry relative="1" as="geometry" />
        </mxCell>
        <mxCell id="Kg3m1BvIZtOhgXG6pX4H-15" style="edgeStyle=orthogonalEdgeStyle;rounded=0;orthogonalLoop=1;jettySize=auto;html=1;exitX=0.75;exitY=0;exitDx=0;exitDy=0;entryX=0.75;entryY=1;entryDx=0;entryDy=0;fillColor=#d5e8d4;strokeColor=#82b366;" edge="1" parent="1" source="KQr703f1yE4qFfnHCt3n-24" target="TocEvrK7y1K00fYPoOnX-3">
          <mxGeometry relative="1" as="geometry" />
        </mxCell>
        <mxCell id="KQr703f1yE4qFfnHCt3n-27" style="edgeStyle=orthogonalEdgeStyle;rounded=0;orthogonalLoop=1;jettySize=auto;html=1;exitX=1;exitY=0.25;exitDx=0;exitDy=0;entryX=0;entryY=0.5;entryDx=0;entryDy=0;" parent="1" source="KQr703f1yE4qFfnHCt3n-29" target="KQr703f1yE4qFfnHCt3n-30" edge="1">
          <mxGeometry relative="1" as="geometry" />
        </mxCell>
        <mxCell id="KQr703f1yE4qFfnHCt3n-28" style="edgeStyle=orthogonalEdgeStyle;rounded=0;orthogonalLoop=1;jettySize=auto;html=1;entryX=0;entryY=0.5;entryDx=0;entryDy=0;" parent="1" source="KQr703f1yE4qFfnHCt3n-29" target="KQr703f1yE4qFfnHCt3n-31" edge="1">
          <mxGeometry relative="1" as="geometry" />
        </mxCell>
        <mxCell id="Kg3m1BvIZtOhgXG6pX4H-13" style="edgeStyle=orthogonalEdgeStyle;rounded=0;orthogonalLoop=1;jettySize=auto;html=1;exitX=1;exitY=0;exitDx=0;exitDy=0;entryX=1;entryY=1;entryDx=0;entryDy=0;fillColor=#d5e8d4;strokeColor=#82b366;" edge="1" parent="1" source="KQr703f1yE4qFfnHCt3n-29" target="TocEvrK7y1K00fYPoOnX-3">
          <mxGeometry relative="1" as="geometry" />
        </mxCell>
        <mxCell id="KQr703f1yE4qFfnHCt3n-30" value="&lt;div&gt;&lt;b&gt;&lt;u&gt;Storage&lt;br&gt;&lt;/u&gt;&lt;/b&gt;-&amp;nbsp;&lt;span style=&quot;background-color: initial;&quot;&gt;Enterprise&lt;/span&gt;&lt;/div&gt;&lt;div&gt;-&amp;nbsp;&lt;span style=&quot;background-color: initial;&quot;&gt;Client E&lt;/span&gt;&lt;/div&gt;" style="rounded=0;whiteSpace=wrap;html=1;strokeColor=#3399FF;" parent="1" vertex="1">
          <mxGeometry x="640" y="560" width="120" height="60" as="geometry" />
        </mxCell>
        <mxCell id="KQr703f1yE4qFfnHCt3n-31" value="&lt;div&gt;&lt;b&gt;&lt;u&gt;Database&lt;br&gt;&lt;/u&gt;&lt;/b&gt;-&amp;nbsp;&lt;span style=&quot;background-color: initial;&quot;&gt;Enterprise&lt;/span&gt;&lt;/div&gt;&lt;div&gt;-&amp;nbsp;&lt;span style=&quot;background-color: initial;&quot;&gt;Client E&lt;/span&gt;&lt;/div&gt;" style="rounded=0;whiteSpace=wrap;html=1;strokeColor=#3399FF;" parent="1" vertex="1">
          <mxGeometry x="640" y="630" width="120" height="60" as="geometry" />
        </mxCell>
        <mxCell id="KQr703f1yE4qFfnHCt3n-33" value="&lt;div&gt;&lt;b&gt;&lt;u&gt;Storage&lt;br&gt;&lt;/u&gt;&lt;/b&gt;-&amp;nbsp;&lt;span style=&quot;background-color: initial;&quot;&gt;Enterprise&lt;/span&gt;&lt;/div&gt;&lt;div&gt;-&amp;nbsp;&lt;span style=&quot;background-color: initial;&quot;&gt;Client E&lt;/span&gt;&lt;/div&gt;" style="rounded=0;whiteSpace=wrap;html=1;strokeColor=#3399FF;" parent="1" vertex="1">
          <mxGeometry x="640" y="700" width="120" height="60" as="geometry" />
        </mxCell>
        <mxCell id="KQr703f1yE4qFfnHCt3n-34" value="&lt;div&gt;&lt;b&gt;&lt;u&gt;Database&lt;br&gt;&lt;/u&gt;&lt;/b&gt;-&amp;nbsp;&lt;span style=&quot;background-color: initial;&quot;&gt;Enterprise&lt;/span&gt;&lt;/div&gt;&lt;div&gt;-&amp;nbsp;&lt;span style=&quot;background-color: initial;&quot;&gt;Client E&lt;/span&gt;&lt;/div&gt;" style="rounded=0;whiteSpace=wrap;html=1;strokeColor=#3399FF;" parent="1" vertex="1">
          <mxGeometry x="640" y="770" width="120" height="60" as="geometry" />
        </mxCell>
        <mxCell id="4QgtCuJvI2FMaAK5J4LN-8" style="edgeStyle=orthogonalEdgeStyle;rounded=0;orthogonalLoop=1;jettySize=auto;html=1;exitX=0.75;exitY=1;exitDx=0;exitDy=0;fillColor=#e1d5e7;strokeColor=#9673a6;" edge="1" parent="1">
          <mxGeometry relative="1" as="geometry">
            <mxPoint x="510" y="490" as="targetPoint" />
            <mxPoint x="510" y="20" as="sourcePoint" />
          </mxGeometry>
        </mxCell>
        <mxCell id="TocEvrK7y1K00fYPoOnX-2" value="&lt;div&gt;&lt;b&gt;&lt;u&gt;Property Management Service&lt;br&gt;&lt;/u&gt;&lt;/b&gt;- free&lt;/div&gt;&lt;div&gt;- Multi Tenant&lt;/div&gt;" style="rounded=0;whiteSpace=wrap;html=1;strokeColor=#3399FF;" parent="1" vertex="1">
          <mxGeometry x="400" y="-40" width="180" height="60" as="geometry" />
        </mxCell>
        <mxCell id="4QgtCuJvI2FMaAK5J4LN-5" style="edgeStyle=orthogonalEdgeStyle;rounded=0;orthogonalLoop=1;jettySize=auto;html=1;exitX=0.5;exitY=0;exitDx=0;exitDy=0;entryX=0;entryY=0.75;entryDx=0;entryDy=0;fillColor=#d5e8d4;strokeColor=#82b366;" edge="1" parent="1" source="NT6AJOet0JUW9j6YSTwX-4" target="TocEvrK7y1K00fYPoOnX-3">
          <mxGeometry relative="1" as="geometry" />
        </mxCell>
        <mxCell id="NT6AJOet0JUW9j6YSTwX-4" value="&lt;div&gt;&lt;b&gt;&lt;u&gt;Park Frontend&lt;/u&gt;&lt;/b&gt;&lt;/div&gt;&lt;div&gt;- Enterprise&lt;/div&gt;&lt;div&gt;- Single Tenant&lt;/div&gt;&lt;div&gt;- Client E&lt;/div&gt;" style="rounded=0;whiteSpace=wrap;html=1;strokeColor=#3399FF;" parent="1" vertex="1">
          <mxGeometry x="180" y="700" width="120" height="60" as="geometry" />
        </mxCell>
        <mxCell id="KQr703f1yE4qFfnHCt3n-24" value="&lt;div&gt;&lt;b style=&quot;background-color: transparent; color: light-dark(rgb(0, 0, 0), rgb(255, 255, 255));&quot;&gt;&lt;u&gt;Property&lt;/u&gt;&lt;/b&gt;&lt;b&gt;&lt;u&gt;&amp;nbsp;Management Service&lt;br&gt;&lt;/u&gt;&lt;/b&gt;-&amp;nbsp;&lt;span style=&quot;background-color: initial;&quot;&gt;Enterprise&lt;/span&gt;&lt;/div&gt;&lt;div&gt;- Client E&lt;/div&gt;" style="rounded=0;whiteSpace=wrap;html=1;strokeColor=#3399FF;" parent="1" vertex="1">
          <mxGeometry x="400" y="730" width="180" height="60" as="geometry" />
        </mxCell>
        <mxCell id="8GwLXXBuUgsIdRiBnsnh-1" value="Google Cloud" style="text;html=1;align=center;verticalAlign=middle;whiteSpace=wrap;rounded=0;" vertex="1" parent="1">
          <mxGeometry x="160" y="-221" width="100" height="30" as="geometry" />
        </mxCell>
        <mxCell id="4QgtCuJvI2FMaAK5J4LN-14" style="edgeStyle=orthogonalEdgeStyle;rounded=0;orthogonalLoop=1;jettySize=auto;html=1;exitX=1;exitY=0.5;exitDx=0;exitDy=0;" edge="1" parent="1" source="4QgtCuJvI2FMaAK5J4LN-1" target="4QgtCuJvI2FMaAK5J4LN-2">
          <mxGeometry relative="1" as="geometry" />
        </mxCell>
        <mxCell id="4QgtCuJvI2FMaAK5J4LN-1" value="&lt;div&gt;&lt;b&gt;&lt;u&gt;Infrastructure Administration Service&lt;br&gt;&lt;/u&gt;&lt;/b&gt;- all tenant types&lt;/div&gt;&lt;div&gt;- Multi Tenant&lt;/div&gt;" style="rounded=0;whiteSpace=wrap;html=1;strokeColor=#3399FF;" vertex="1" parent="1">
          <mxGeometry x="360" y="490" width="220" height="60" as="geometry" />
        </mxCell>
        <mxCell id="4QgtCuJvI2FMaAK5J4LN-2" value="&lt;div&gt;&lt;b&gt;&lt;u&gt;Database&lt;/u&gt;&lt;/b&gt;&lt;/div&gt;&lt;div&gt;- all tenant types&lt;/div&gt;&lt;div&gt;- Multi Tenant&lt;/div&gt;" style="rounded=0;whiteSpace=wrap;html=1;strokeColor=#3399FF;" vertex="1" parent="1">
          <mxGeometry x="640" y="480" width="120" height="60" as="geometry" />
        </mxCell>
        <mxCell id="4QgtCuJvI2FMaAK5J4LN-6" style="edgeStyle=orthogonalEdgeStyle;rounded=0;orthogonalLoop=1;jettySize=auto;html=1;exitX=0;exitY=1;exitDx=0;exitDy=0;entryX=0.182;entryY=-0.042;entryDx=0;entryDy=0;entryPerimeter=0;fillColor=#e1d5e7;strokeColor=#9673a6;" edge="1" parent="1" source="TocEvrK7y1K00fYPoOnX-4" target="4QgtCuJvI2FMaAK5J4LN-1">
          <mxGeometry relative="1" as="geometry" />
        </mxCell>
        <mxCell id="KQr703f1yE4qFfnHCt3n-10" value="&lt;div&gt;&lt;b&gt;&lt;u&gt;Parking Management Service&lt;br&gt;&lt;/u&gt;&lt;/b&gt;- Premium&lt;/div&gt;&lt;div&gt;- Multi Tenant&lt;/div&gt;" style="rounded=0;whiteSpace=wrap;html=1;strokeColor=#3399FF;" parent="1" vertex="1">
          <mxGeometry x="400" y="110" width="180" height="60" as="geometry" />
        </mxCell>
        <mxCell id="4QgtCuJvI2FMaAK5J4LN-9" style="edgeStyle=orthogonalEdgeStyle;rounded=0;orthogonalLoop=1;jettySize=auto;html=1;exitX=0.75;exitY=1;exitDx=0;exitDy=0;fillColor=#e1d5e7;strokeColor=#9673a6;" edge="1" parent="1">
          <mxGeometry relative="1" as="geometry">
            <mxPoint x="420" y="490" as="targetPoint" />
            <mxPoint x="420" y="170" as="sourcePoint" />
          </mxGeometry>
        </mxCell>
        <mxCell id="KQr703f1yE4qFfnHCt3n-5" value="&lt;div&gt;&lt;b style=&quot;background-color: transparent; color: light-dark(rgb(0, 0, 0), rgb(255, 255, 255));&quot;&gt;&lt;u&gt;Property&lt;/u&gt;&lt;/b&gt;&lt;b&gt;&lt;u&gt;&amp;nbsp;Management Service&lt;br&gt;&lt;/u&gt;&lt;/b&gt;- Premium&lt;/div&gt;&lt;div&gt;- Multi Tenant&lt;/div&gt;" style="rounded=0;whiteSpace=wrap;html=1;strokeColor=#3399FF;" parent="1" vertex="1">
          <mxGeometry x="400" y="250" width="180" height="60" as="geometry" />
        </mxCell>
        <mxCell id="4QgtCuJvI2FMaAK5J4LN-10" style="edgeStyle=orthogonalEdgeStyle;rounded=0;orthogonalLoop=1;jettySize=auto;html=1;exitX=0.75;exitY=1;exitDx=0;exitDy=0;fillColor=#e1d5e7;strokeColor=#9673a6;" edge="1" parent="1">
          <mxGeometry relative="1" as="geometry">
            <mxPoint x="470" y="490" as="targetPoint" />
            <mxPoint x="469.5" y="310" as="sourcePoint" />
          </mxGeometry>
        </mxCell>
        <mxCell id="TocEvrK7y1K00fYPoOnX-3" value="&lt;div&gt;&lt;b&gt;&lt;u&gt;Authentication Service&lt;br&gt;&lt;/u&gt;&lt;/b&gt;- all tenant types&lt;/div&gt;&lt;div&gt;- Multi Tenant&lt;/div&gt;" style="rounded=0;whiteSpace=wrap;html=1;strokeColor=#3399FF;" parent="1" vertex="1">
          <mxGeometry x="400" y="390" width="180" height="60" as="geometry" />
        </mxCell>
        <mxCell id="4QgtCuJvI2FMaAK5J4LN-11" style="edgeStyle=orthogonalEdgeStyle;rounded=0;orthogonalLoop=1;jettySize=auto;html=1;exitX=0.25;exitY=0;exitDx=0;exitDy=0;entryX=0.386;entryY=0.992;entryDx=0;entryDy=0;entryPerimeter=0;fillColor=#e1d5e7;strokeColor=#9673a6;" edge="1" parent="1" source="KQr703f1yE4qFfnHCt3n-24" target="4QgtCuJvI2FMaAK5J4LN-1">
          <mxGeometry relative="1" as="geometry" />
        </mxCell>
        <mxCell id="4QgtCuJvI2FMaAK5J4LN-13" style="edgeStyle=orthogonalEdgeStyle;rounded=0;orthogonalLoop=1;jettySize=auto;html=1;exitX=0.5;exitY=0;exitDx=0;exitDy=0;entryX=0.591;entryY=1.008;entryDx=0;entryDy=0;entryPerimeter=0;fillColor=#e1d5e7;strokeColor=#9673a6;" edge="1" parent="1" source="KQr703f1yE4qFfnHCt3n-29" target="4QgtCuJvI2FMaAK5J4LN-1">
          <mxGeometry relative="1" as="geometry" />
        </mxCell>
        <mxCell id="KQr703f1yE4qFfnHCt3n-29" value="&lt;div&gt;&lt;b&gt;&lt;u&gt;Parking Management Service&lt;br&gt;&lt;/u&gt;&lt;/b&gt;- Enterprise&lt;/div&gt;&lt;div&gt;- Client E&lt;/div&gt;" style="rounded=0;whiteSpace=wrap;html=1;strokeColor=#3399FF;" parent="1" vertex="1">
          <mxGeometry x="400" y="590" width="180" height="60" as="geometry" />
        </mxCell>
      </root>
    </mxGraphModel>
  </diagram>
  <diagram id="x_ORJpi7mUNhqiC8L5te" name="Component-SignUp">
    <mxGraphModel dx="1026" dy="673" grid="1" gridSize="10" guides="1" tooltips="1" connect="1" arrows="1" fold="1" page="1" pageScale="1" pageWidth="827" pageHeight="1169" math="0" shadow="0">
      <root>
        <mxCell id="0" />
        <mxCell id="1" parent="0" />
        <mxCell id="AgPAm07qEZDUwwsbaMgI-6" value="Client A&amp;nbsp;&lt;div&gt;(no tenant type)&lt;/div&gt;" style="whiteSpace=wrap;html=1;" vertex="1" parent="1">
          <mxGeometry x="260" y="140" width="90" height="60" as="geometry" />
        </mxCell>
        <mxCell id="m5kRd9h46YYi2awzVUOV-1" value="" style="whiteSpace=wrap;html=1;" vertex="1" parent="1">
          <mxGeometry x="370" y="130" width="640" height="150" as="geometry" />
        </mxCell>
        <mxCell id="hK1xJPr0vpvruOfkwJjv-1" value="Google Cloud" style="text;html=1;align=center;verticalAlign=middle;whiteSpace=wrap;rounded=0;" vertex="1" parent="1">
          <mxGeometry x="369" y="130" width="90" height="30" as="geometry" />
        </mxCell>
        <mxCell id="QBGecogsN_jqjOLchXnE-2" style="edgeStyle=orthogonalEdgeStyle;rounded=0;orthogonalLoop=1;jettySize=auto;html=1;exitX=1;exitY=0.5;exitDx=0;exitDy=0;entryX=0;entryY=0.75;entryDx=0;entryDy=0;" edge="1" parent="1" source="hK1xJPr0vpvruOfkwJjv-2" target="HA604BuquU6A6oQXTi5y-1">
          <mxGeometry relative="1" as="geometry" />
        </mxCell>
        <mxCell id="hK1xJPr0vpvruOfkwJjv-2" value="Client B&amp;nbsp;&lt;div&gt;(no tenant type)&lt;/div&gt;" style="whiteSpace=wrap;html=1;" vertex="1" parent="1">
          <mxGeometry x="260" y="230" width="90" height="60" as="geometry" />
        </mxCell>
        <mxCell id="vNzoeBvse9OoMK2oe2zg-1" style="edgeStyle=orthogonalEdgeStyle;rounded=0;orthogonalLoop=1;jettySize=auto;html=1;exitX=1;exitY=0.5;exitDx=0;exitDy=0;entryX=0;entryY=0.5;entryDx=0;entryDy=0;" edge="1" parent="1" source="HA604BuquU6A6oQXTi5y-1" target="F7FEU9rfsRR3Bm4MXARr-4">
          <mxGeometry relative="1" as="geometry" />
        </mxCell>
        <mxCell id="HA604BuquU6A6oQXTi5y-1" value="&lt;b&gt;&lt;u&gt;Sign Up Frontend&lt;/u&gt;&lt;/b&gt;&lt;div&gt;- no tenant type&lt;/div&gt;&lt;div&gt;- Single Tenant&lt;/div&gt;&lt;div&gt;&lt;br&gt;&lt;/div&gt;" style="rounded=0;whiteSpace=wrap;html=1;strokeColor=#3399FF;" vertex="1" parent="1">
          <mxGeometry x="400" y="180" width="120" height="60" as="geometry" />
        </mxCell>
        <mxCell id="QBGecogsN_jqjOLchXnE-1" style="edgeStyle=orthogonalEdgeStyle;rounded=0;orthogonalLoop=1;jettySize=auto;html=1;exitX=1;exitY=0.5;exitDx=0;exitDy=0;entryX=0;entryY=0.25;entryDx=0;entryDy=0;" edge="1" parent="1" source="AgPAm07qEZDUwwsbaMgI-6" target="HA604BuquU6A6oQXTi5y-1">
          <mxGeometry relative="1" as="geometry" />
        </mxCell>
        <mxCell id="F7FEU9rfsRR3Bm4MXARr-3" value="&lt;meta charset=&quot;utf-8&quot;&gt;&lt;b style=&quot;border-color: rgb(0, 0, 0); color: rgb(240, 240, 240); font-family: Helvetica; font-size: 12px; font-style: normal; font-variant-ligatures: normal; font-variant-caps: normal; letter-spacing: normal; orphans: 2; text-align: center; text-indent: 0px; text-transform: none; widows: 2; word-spacing: 0px; -webkit-text-stroke-width: 0px; white-space: normal; background-color: rgb(42, 37, 47); text-decoration-thickness: initial; text-decoration-style: initial; text-decoration-color: initial;&quot;&gt;Sign Up Frontend&lt;/b&gt;" style="text;html=1;align=center;verticalAlign=middle;whiteSpace=wrap;rounded=0;" vertex="1" parent="1">
          <mxGeometry y="60" width="250" height="30" as="geometry" />
        </mxCell>
        <mxCell id="vNzoeBvse9OoMK2oe2zg-2" style="edgeStyle=orthogonalEdgeStyle;rounded=0;orthogonalLoop=1;jettySize=auto;html=1;exitX=1;exitY=0.5;exitDx=0;exitDy=0;" edge="1" parent="1" source="F7FEU9rfsRR3Bm4MXARr-4" target="tuW6mDyGMJeGwQONvnIf-1">
          <mxGeometry relative="1" as="geometry" />
        </mxCell>
        <mxCell id="F7FEU9rfsRR3Bm4MXARr-4" value="&lt;div&gt;&lt;u style=&quot;font-weight: bold;&quot;&gt;Infrastructure Administration Service&lt;/u&gt;&amp;nbsp; - all tenant types&lt;/div&gt;&lt;div&gt;&lt;span style=&quot;background-color: transparent; color: light-dark(rgb(0, 0, 0), rgb(255, 255, 255));&quot;&gt;- Multi Tenant&lt;/span&gt;&lt;/div&gt;" style="rounded=0;whiteSpace=wrap;html=1;strokeColor=#3399FF;" vertex="1" parent="1">
          <mxGeometry x="569" y="180" width="221" height="60" as="geometry" />
        </mxCell>
        <mxCell id="tuW6mDyGMJeGwQONvnIf-1" value="&lt;div&gt;&lt;u style=&quot;font-weight: bold;&quot;&gt;Database&lt;/u&gt;&amp;nbsp;&amp;nbsp;&lt;/div&gt;&lt;div&gt;- all tenant types&lt;/div&gt;&lt;div&gt;&lt;span style=&quot;background-color: transparent; color: light-dark(rgb(0, 0, 0), rgb(255, 255, 255));&quot;&gt;- Multi Tenant&lt;/span&gt;&lt;/div&gt;" style="rounded=0;whiteSpace=wrap;html=1;strokeColor=#3399FF;" vertex="1" parent="1">
          <mxGeometry x="860" y="180" width="130" height="60" as="geometry" />
        </mxCell>
      </root>
    </mxGraphModel>
  </diagram>
</mxfile>
